<svg width="49" height="57" viewBox="0 0 49 57" fill="none" xmlns="http://www.w3.org/2000/svg">
<path d="M10.2377 54.7595V49.8066L2.90203 38.7816C2.31857 37.9043 2.0005 36.8145 2 35.6911V21.3279C2 20.3427 2.32546 19.3979 2.90479 18.7012C3.48412 18.0046 4.26985 17.6133 5.08914 17.6133V17.6133C5.90843 17.6133 6.69417 18.0046 7.27349 18.7012C7.85282 19.3979 8.17828 20.3427 8.17828 21.3279V28.9701" stroke="#EEEEEE" stroke-width="3" stroke-miterlimit="10" stroke-linecap="square"/>
<path d="M20.5349 54.7594V41.9514C20.5346 40.638 20.1005 39.3784 19.328 38.4498L12.2972 29.9953C11.7508 29.339 11.01 28.9703 10.2377 28.9703C9.46542 28.9703 8.72471 29.339 8.1783 29.9953V29.9953C7.6325 30.6523 7.32593 31.543 7.32593 32.4717C7.32593 33.4004 7.6325 34.2911 8.1783 34.9481L14.3566 42.3774" stroke="#EEEEEE" stroke-width="3" stroke-miterlimit="10" stroke-linecap="square"/>
<path d="M39.0697 54.7595V49.8066L46.4054 38.7816C46.9888 37.9043 47.3069 36.8145 47.3074 35.6911V21.3279C47.3074 20.3427 46.9819 19.3979 46.4026 18.7012C45.8233 18.0046 45.0376 17.6133 44.2183 17.6133V17.6133C43.399 17.6133 42.6132 18.0046 42.0339 18.7012C41.4546 19.3979 41.1291 20.3427 41.1291 21.3279V28.9701" stroke="#EEEEEE" stroke-width="3" stroke-miterlimit="10" stroke-linecap="square"/>
<path d="M28.7726 54.7594V41.9514C28.7728 40.638 29.2069 39.3784 29.9794 38.4498L37.0103 29.9953C37.5567 29.339 38.2974 28.9703 39.0697 28.9703C39.842 28.9703 40.5828 29.339 41.1292 29.9953V29.9953C41.675 30.6523 41.9815 31.543 41.9815 32.4717C41.9815 33.4004 41.675 34.2911 41.1292 34.9481L34.9509 42.3774" stroke="#EEEEEE" stroke-width="3" stroke-miterlimit="10" stroke-linecap="square"/>
<path d="M18.4755 15.1368C18.4755 10.4316 24.6537 2.7547 24.6537 2.7547C24.6537 2.7547 30.832 10.4316 30.832 15.1368C30.832 17.1071 30.1811 18.9968 29.0225 20.39C27.8638 21.7833 26.2923 22.566 24.6537 22.566C23.0152 22.566 21.4437 21.7833 20.285 20.39C19.1264 18.9968 18.4755 17.1071 18.4755 15.1368Z" stroke="#09ADBB" stroke-width="3" stroke-miterlimit="10" stroke-linecap="square"/>
</svg>
